<svg xmlns="http://www.w3.org/2000/svg" xmlns:xlink="http://www.w3.org/1999/xlink" width="40" height="40" viewBox="0 0 40 40">
  <defs>
    <clipPath id="clip-path">
      <rect id="Rectangle_12783" data-name="Rectangle 12783" width="34.124" height="29.894" fill="#295285"/>
    </clipPath>
  </defs>
  <g id="comment" transform="translate(-518 -302)">
    <g id="Rectangle_12608" data-name="Rectangle 12608" transform="translate(518 302)" fill="#fff" stroke="#295285" stroke-width="1" opacity="0">
      <rect width="40" height="40" stroke="none"/>
      <rect x="0.5" y="0.5" width="39" height="39" fill="none"/>
    </g>
    <g id="Group_25054" data-name="Group 25054" transform="translate(520.938 307.053)">
      <g id="Group_25054-2" data-name="Group 25054" clip-path="url(#clip-path)">
        <path id="Path_18445" data-name="Path 18445" d="M17.08,0a20.751,20.751,0,0,1,7.267,1.357,16.194,16.194,0,0,1,7.186,5.2,11.772,11.772,0,0,1,2.582,7.811,11.481,11.481,0,0,1-1.639,5.485,14.882,14.882,0,0,1-5.391,5.266,19.123,19.123,0,0,1-7.265,2.463,20.77,20.77,0,0,1-5.289.031,19.649,19.649,0,0,1-4.419-1.067.355.355,0,0,0-.392.066A15.583,15.583,0,0,1,3.6,29.546a13.918,13.918,0,0,1-2.981.348.54.54,0,0,1-.551-.3A.557.557,0,0,1,.2,28.936a17.656,17.656,0,0,0,3.367-5.493,1.13,1.13,0,0,0-.253-1.386,11.763,11.763,0,0,1-2.75-4.638A11.279,11.279,0,0,1,.3,11.3,12.289,12.289,0,0,1,2.773,6.325,16.052,16.052,0,0,1,8.644,1.842,19.064,19.064,0,0,1,14.681.177c.8-.085,1.6-.12,2.4-.177M6.409,13.925a2.13,2.13,0,1,0,2.081-2.157,2.121,2.121,0,0,0-2.081,2.157m10.647-2.159A2.133,2.133,0,1,0,19.2,13.916a2.125,2.125,0,0,0-2.144-2.151m8.556,0a2.131,2.131,0,1,0,.024,4.262,2.131,2.131,0,0,0-.024-4.262" transform="translate(0)" fill="#295285"/>
      </g>
    </g>
  </g>
</svg>
