<svg xmlns="http://www.w3.org/2000/svg" xmlns:xlink="http://www.w3.org/1999/xlink" width="40" height="40" viewBox="0 0 40 40">
  <defs>
    <clipPath id="clip-path">
      <rect id="Rectangle_12807" data-name="Rectangle 12807" width="21.815" height="21.801" fill="#295285"/>
    </clipPath>
  </defs>
  <g id="noonreport" transform="translate(-759 -313)">
    <g id="spacer" transform="translate(759 313)" fill="rgba(255,255,255,0)" stroke="rgba(0,0,0,0)" stroke-width="1">
      <rect width="40" height="40" stroke="none"/>
      <rect x="0.5" y="0.5" width="39" height="39" fill="none"/>
    </g>
    <g id="Group_25130" data-name="Group 25130" transform="translate(768.345 322.341)">
      <g id="Group_25112" data-name="Group 25112" clip-path="url(#clip-path)">
        <path id="Path_18465" data-name="Path 18465" d="M10.807,20.441H6.031c-1.555,0-3.109,0-4.664,0A1.352,1.352,0,0,1,0,19.036c-.006-1.2,0-2.4,0-3.605q0-2.287,0-4.574Q0,6.2,0,1.548A1.389,1.389,0,0,1,1.546,0H4.565q4.71,0,9.42,0a1.344,1.344,0,0,1,1.329.789,1.6,1.6,0,0,1,.132.652c.01,1.667.006,3.335.006,5q0,1.2,0,2.394v.25A6.745,6.745,0,0,0,9.615,13.34a6.654,6.654,0,0,0,1.192,7.1M1.825,4.559h0c0,.563,0,1.125,0,1.688,0,.418.151.568.571.569q1.7,0,3.4,0c.412,0,.572-.161.572-.573q0-1.7,0-3.4c0-.411-.161-.569-.576-.569h-3.4c-.413,0-.569.159-.569.573q0,.855,0,1.71M7.286,9.088h4.863c.365,0,.579-.168.58-.451s-.212-.449-.579-.45h-9.7a1.869,1.869,0,0,0-.225,0,.449.449,0,0,0-.024.888,1.468,1.468,0,0,0,.247.009h4.84M5.433,18.174H8.472a1.3,1.3,0,0,0,.268-.018.449.449,0,0,0-.007-.876,1.255,1.255,0,0,0-.246-.016H2.427a1.259,1.259,0,0,0-.246.016.449.449,0,0,0-.008.875,1.3,1.3,0,0,0,.268.018H5.433M6.761,11.38v-.019c.323,0,.645,0,.968,0s.631.008.945-.01a.426.426,0,0,0,.412-.449.436.436,0,0,0-.4-.441,1.614,1.614,0,0,0-.225-.008H5.094c-.923,0-1.846,0-2.769,0a.454.454,0,1,0,0,.9q1.112.017,2.224.021c.739,0,1.478,0,2.217,0M4.331,15c-.675,0-1.351,0-2.026,0a.451.451,0,1,0-.011.9q2.254,0,4.508,0a.451.451,0,0,0,.065-.9,5.28,5.28,0,0,0-.621,0H4.331m.2-2.267c-.736,0-1.471,0-2.207,0a.439.439,0,0,0-.447.65c.094.247.323.255.54.256q2.151,0,4.3,0c.335,0,.555-.185.555-.459s-.213-.447-.558-.448q-1.092,0-2.184,0M10.223,5c.668,0,1.337,0,2.005,0a.454.454,0,1,0,0-.9q-1.994,0-3.988,0a.628.628,0,0,0-.334.1.4.4,0,0,0-.152.48A.449.449,0,0,0,8.218,5h2.005" transform="translate(0 0)"/>
        <path id="Path_18466" data-name="Path 18466" d="M367.017,232.748l-1.975-1.989q-.492-.495-.986-.988c-.315-.315-.633-.627-.941-.95a.4.4,0,0,1-.108-.251q-.009-2.691,0-5.381a1.248,1.248,0,0,1,.013-.131,5.775,5.775,0,0,1,4.832,3.235,5.865,5.865,0,0,1-.831,6.455" transform="translate(-346.643 -213.005)"/>
        <path id="Path_18467" data-name="Path 18467" d="M232.435,366.587a5.864,5.864,0,0,1-9.685-4.027h1.116c1.419,0,2.838.011,4.257-.008a.731.731,0,0,1,.613.332c.121.142.24.286.372.417q1.657,1.636,3.318,3.267s.006.014.009.021" transform="translate(-212.711 -346.212)"/>
        <path id="Path_18468" data-name="Path 18468" d="M227.851,222.317v5.41h-5.415a5.742,5.742,0,0,1,1.487-3.464,5.824,5.824,0,0,1,3.928-1.946" transform="translate(-212.411 -212.298)"/>
      </g>
    </g>
  </g>
</svg>
