<svg xmlns="http://www.w3.org/2000/svg" width="35" height="35" viewBox="0 0 35 35">
  <g id="user_management" data-name="user management" transform="translate(-429.848 -465.702)">
    <g id="spacer" transform="translate(429.848 465.702)" fill="rgba(255,255,255,0)" stroke="rgba(0,0,0,0)" stroke-width="1">
      <rect width="35" height="35" stroke="none"/>
      <rect x="0.5" y="0.5" width="34" height="34" fill="none"/>
    </g>
    <g id="multiple-users-silhouette" transform="translate(433.317 471.298)">
      <path id="Path_52" data-name="Path 52" d="M16.933,10.434a5.145,5.145,0,0,1,2.373,3.819,4.066,4.066,0,0,0,1.739.393,4.149,4.149,0,1,0-4.112-4.211Zm-2.7,8.495a4.149,4.149,0,1,0-4.116-4.149A4.132,4.132,0,0,0,14.237,18.929Zm1.746.283H12.491a5.3,5.3,0,0,0-5.269,5.313V28.83l.011.067.294.093a23.808,23.808,0,0,0,7.164,1.165,14.609,14.609,0,0,0,6.256-1.184l.275-.14h.029V24.524A5.3,5.3,0,0,0,15.983,19.212Zm6.809-4.283H19.327a5.132,5.132,0,0,1-1.565,3.561,6.306,6.306,0,0,1,4.472,6.041v1.327a14.086,14.086,0,0,0,5.523-1.17l.275-.141h.029V20.24A5.3,5.3,0,0,0,22.792,14.929ZM7.016,14.646a4.064,4.064,0,0,0,2.189-.64,5.143,5.143,0,0,1,1.914-3.275c0-.078.012-.155.012-.233a4.115,4.115,0,1,0-4.115,4.148Zm3.7,3.844a5.135,5.135,0,0,1-1.564-3.542c-.129-.01-.256-.02-.387-.02H5.269A5.3,5.3,0,0,0,0,20.24v4.306l.011.066.294.094a24.527,24.527,0,0,0,5.934,1.124v-1.3A6.307,6.307,0,0,1,10.712,18.49Z" transform="translate(0 -6.348)"/>
    </g>
  </g>
</svg>
