<svg width="30" height="30" viewBox="0 0 30 30" fill="none" xmlns="http://www.w3.org/2000/svg">
<path d="M11.6842 25.3362V21.6069C11.6842 20.6549 12.4616 19.8831 13.4206 19.8831H16.9261C17.3866 19.8831 17.8282 20.0647 18.1538 20.388C18.4795 20.7112 18.6624 21.1497 18.6624 21.6069V25.3362C18.6595 25.732 18.8158 26.1126 19.0967 26.3934C19.3776 26.6743 19.7598 26.8323 20.1585 26.8323H22.5501C23.6671 26.8352 24.7393 26.3967 25.5301 25.6136C26.321 24.8306 26.7654 23.7673 26.7654 22.6584V12.0341C26.7654 11.1384 26.3655 10.2888 25.6734 9.71411L17.5376 3.26362C16.1224 2.13263 14.0946 2.16915 12.7217 3.35035L4.77151 9.71411C4.04671 10.2718 3.6135 11.124 3.59209 12.0341V22.6476C3.59209 24.9587 5.47936 26.8323 7.80742 26.8323H10.1444C10.9725 26.8323 11.6454 26.1691 11.6514 25.347L11.6842 25.3362Z" fill="#0284C7"/>
</svg>
